<svg width="24" height="24" viewBox="0 0 24 24" fill="none" xmlns="http://www.w3.org/2000/svg">
    <path d="M13.8329 1.86621L20.1329 8.15448V20.6662C20.1329 21.5498 19.4165 22.2662 18.5329 22.2662H5.46621C4.58261 22.2662 3.86621 21.5498 3.86621 20.6662V3.46621C3.86621 2.58261 4.58261 1.86621 5.46621 1.86621H13.8329ZM13.5571 2.53288H5.46621C5.22421 2.53287 4.99168 2.62686 4.81765 2.79502C4.64362 2.96318 4.54171 3.19236 4.53341 3.43421L4.53288 3.46621V20.6662C4.53287 20.9082 4.62686 21.1407 4.79502 21.3148C4.96318 21.4888 5.19236 21.5907 5.43421 21.599L5.46621 21.5995H18.5329C18.7749 21.5995 19.0074 21.5056 19.1814 21.3374C19.3555 21.1692 19.4574 20.9401 19.4657 20.6982L19.4662 20.6662V8.43101L13.5571 2.53288Z" fill="#FF7875"/>
    <path d="M20.0332 8.81994H14.9908C13.9237 8.81994 13.056 7.96608 13.0336 6.90421L13.0332 6.86221V1.86621H13.6999V6.86221C13.6999 7.56288 14.2581 8.13328 14.9541 8.15274L14.9908 8.15328H20.0332V8.81994Z" fill="#FF7875"/>
    <path d="M1.99967 11.5996H21.9997C22.4441 11.5996 22.6663 11.8218 22.6663 12.2663V18.9329C22.6663 19.3774 22.4441 19.5996 21.9997 19.5996H1.99967C1.55523 19.5996 1.33301 19.3774 1.33301 18.9329V12.2663C1.33301 11.8218 1.55523 11.5996 1.99967 11.5996Z" fill="#FF7875"/>
    <path d="M7.46365 17.8665V16.3845H7.98565C8.93365 16.3845 9.74965 15.9165 9.74965 14.8545C9.74965 13.7505 8.93965 13.3965 7.96165 13.3965H6.38965V17.8665H7.46365ZM7.93165 15.5385H7.46365V14.2485H7.90165C8.41765 14.2485 8.70565 14.4045 8.70565 14.8545C8.70565 15.2925 8.45365 15.5385 7.93165 15.5385ZM11.8556 17.8665C13.1576 17.8665 14.0576 17.1645 14.0576 15.6105C14.0576 14.0565 13.1576 13.3965 11.7956 13.3965H10.5116V17.8665H11.8556ZM11.7296 17.0025H11.5856V14.2545H11.7296C12.4496 14.2545 12.9596 14.5485 12.9596 15.6105C12.9596 16.6725 12.4496 17.0025 11.7296 17.0025ZM15.9597 17.8665V16.1625H17.4836V15.2685H15.9597V14.2905H17.7357V13.3965H14.8856V17.8665H15.9597Z" fill="white"/>
</svg>
