<svg width="24" height="24" viewBox="0 0 24 24" fill="none" xmlns="http://www.w3.org/2000/svg">
    <path d="M13.8329 1.7334L20.1329 8.02167V20.5334C20.1329 21.417 19.4165 22.1334 18.5329 22.1334H5.46621C4.58261 22.1334 3.86621 21.417 3.86621 20.5334V3.3334C3.86621 2.4498 4.58261 1.7334 5.46621 1.7334H13.8329ZM13.557 2.39993H5.46621C5.22422 2.39996 4.9917 2.49396 4.81768 2.66211C4.64366 2.83026 4.54174 3.05942 4.53341 3.30126L4.53288 3.3334V20.5334C4.53287 20.7754 4.62686 21.0079 4.79502 21.182C4.96318 21.356 5.19236 21.4579 5.43421 21.4662L5.46621 21.4667H18.5329C18.7749 21.4667 19.0074 21.3727 19.1814 21.2046C19.3555 21.0364 19.4574 20.8073 19.4657 20.5654L19.4662 20.5334V8.2982L13.557 2.39993Z" fill="#1890FF"/>
    <path d="M20.0332 8.68713H14.9908C13.9237 8.68713 13.056 7.83326 13.0336 6.7714L13.0332 6.7294V1.7334H13.6999V6.7294C13.6999 7.43006 14.2581 8.00046 14.9541 8.01993L14.9908 8.02046H20.0332V8.68713Z" fill="#1890FF"/>
    <path d="M1.99967 11.4668H21.9997C22.4441 11.4668 22.6663 11.689 22.6663 12.1335V18.8001C22.6663 19.2446 22.4441 19.4668 21.9997 19.4668H1.99967C1.55523 19.4668 1.33301 19.2446 1.33301 18.8001V12.1335C1.33301 11.689 1.55523 11.4668 1.99967 11.4668Z" fill="#1890FF"/>
    <path d="M7.11353 17.7335C8.41553 17.7335 9.31553 17.0315 9.31553 15.4775C9.31553 13.9235 8.41553 13.2635 7.05353 13.2635H5.76953V17.7335H7.11353ZM6.98753 16.8695H6.84353V14.1215H6.98753C7.70753 14.1215 8.21753 14.4155 8.21753 15.4775C8.21753 16.5395 7.70753 16.8695 6.98753 16.8695ZM11.9855 17.8175C13.2035 17.8175 14.0315 16.9415 14.0315 15.4775C14.0315 14.0195 13.2035 13.1855 11.9855 13.1855C10.7675 13.1855 9.93953 14.0135 9.93953 15.4775C9.93953 16.9415 10.7675 17.8175 11.9855 17.8175ZM11.9855 16.8935C11.3975 16.8935 11.0375 16.3415 11.0375 15.4775C11.0375 14.6135 11.3975 14.1035 11.9855 14.1035C12.5735 14.1035 12.9395 14.6135 12.9395 15.4775C12.9395 16.3415 12.5735 16.8935 11.9855 16.8935ZM16.7495 17.8175C17.3315 17.8175 17.8295 17.5955 18.2075 17.1575L17.6435 16.4855C17.4335 16.7135 17.1515 16.8935 16.7915 16.8935C16.1615 16.8935 15.7535 16.3775 15.7535 15.4895C15.7535 14.6195 16.2275 14.1035 16.8035 14.1035C17.1215 14.1035 17.3555 14.2475 17.5835 14.4515L18.1415 13.7675C17.8355 13.4555 17.3675 13.1855 16.7855 13.1855C15.6515 13.1855 14.6555 14.0375 14.6555 15.5255C14.6555 17.0375 15.6155 17.8175 16.7495 17.8175Z" fill="white"/>
</svg>
