<svg width="30" height="30" viewBox="0 0 30 30" fill="none" xmlns="http://www.w3.org/2000/svg">
    <path d="M12.6701 5.47466L13.977 8.52216C14.1257 8.96591 14.7082 9.35341 15.3545 9.35341H25.6751C27.0888 9.35341 28.2345 10.4997 28.2963 11.9315V19.4315C28.2351 22.3159 25.9557 24.714 22.9676 24.9834C17.6482 25.464 12.2926 25.464 6.9732 24.9834C3.98508 24.714 1.70508 22.3159 1.70508 19.4565V10.289C1.70508 5.60403 4.1407 4.85091 7.12945 4.58091C8.51383 4.45591 10.0588 4.36841 11.1332 4.48966C11.587 4.54091 12.4132 4.85778 12.6707 5.47466H12.6701Z" fill="#CCA57A"/>
    <path d="M13.8771 8.37012C13.9986 8.66165 14.2037 8.91069 14.4665 9.08586C14.7293 9.26103 15.0381 9.3545 15.3539 9.35449H25.6746C26.3172 9.35429 26.9361 9.5967 27.4077 10.0332V9.94449C27.4077 8.76859 26.9406 7.64085 26.1091 6.80936C25.2776 5.97787 24.1498 5.51074 22.9739 5.51074H12.6846L13.8771 8.37012Z" fill="#CCCCCC"/>
</svg>
