<svg width="14" height="14" viewBox="0 0 14 14" fill="none" xmlns="http://www.w3.org/2000/svg">
    <path
        d="M8.80629 9.2409C10.0389 8.01687 10.873 5.72651 10.873 4.24951C10.873 2.11431 9.13549 0.376953 7.00049 0.376953C4.86529 0.376953 3.12793 2.11431 3.12793 4.24951C3.12793 5.74206 3.94829 7.98965 5.17115 9.21756C5.03613 9.32674 4.92724 9.46474 4.85248 9.62146C4.77772 9.77818 4.73898 9.94965 4.7391 10.1233V12.0677C4.7391 12.3771 4.86201 12.6739 5.08081 12.8927C5.2996 13.1115 5.59634 13.2344 5.90576 13.2344H6.16982C6.25635 13.4413 6.42357 13.6233 6.6746 13.6233H7.23751C7.48854 13.6233 7.6721 13.4413 7.7699 13.2344H8.04465C8.19786 13.2344 8.34957 13.2042 8.49112 13.1456C8.63266 13.087 8.76128 13.001 8.86961 12.8927C8.97795 12.7844 9.06388 12.6557 9.12251 12.5142C9.18114 12.3726 9.21132 12.2209 9.21132 12.0677V10.1233C9.21139 9.9557 9.17524 9.79009 9.10533 9.63779C9.03542 9.48548 8.93341 9.3501 8.80629 9.2409ZM5.53243 12.171C5.5226 12.1375 5.51736 12.1028 5.51687 12.0679V11.2406L8.40651 9.98367C8.42343 10.0272 8.43354 10.0741 8.43354 10.1235V10.909L5.53243 12.171ZM5.90576 9.73459H8.0046L5.51687 10.8165V10.1235C5.51687 10.0724 5.52693 10.0218 5.54648 9.97466C5.56602 9.92748 5.59467 9.88461 5.63078 9.84849C5.66689 9.81238 5.70976 9.78374 5.75694 9.76419C5.80412 9.74465 5.85469 9.73459 5.90576 9.73459ZM3.90571 4.24951C3.90571 2.54306 5.29404 1.15473 7.00049 1.15473C8.70674 1.15473 10.0953 2.54306 10.0953 4.24951C10.0953 5.67167 9.19985 7.97234 8.0009 8.92259L8.02812 8.95681H6.04674C4.83904 8.04254 3.90571 5.68606 3.90571 4.24951ZM8.04465 12.4568H5.90576C5.89021 12.4568 5.87562 12.4539 5.86046 12.4523L8.43354 11.3331V12.0679C8.43354 12.119 8.42348 12.1696 8.40394 12.2167C8.3844 12.2639 8.35575 12.3068 8.31964 12.3429C8.28353 12.379 8.24066 12.4077 8.19347 12.4272C8.14629 12.4468 8.09572 12.4568 8.04465 12.4568Z"
        fill="white" />
    <path
        d="M7.05313 4.48411C7.10563 4.48411 7.15424 4.46273 7.19099 4.42773C7.22619 4.39078 7.24758 4.34023 7.24758 4.28967C7.24758 4.23911 7.22619 4.18836 7.19099 4.15161C7.11924 4.07967 6.98702 4.07967 6.91508 4.15161C6.87988 4.18836 6.85869 4.23698 6.85869 4.28967C6.85869 4.34217 6.87988 4.39078 6.91508 4.42773C6.95183 4.46273 7.00258 4.48411 7.05313 4.48411ZM7.07238 4.873C7.04685 4.873 7.02156 4.87803 6.99797 4.8878C6.97438 4.89758 6.95295 4.9119 6.93489 4.92996C6.91683 4.94801 6.90251 4.96945 6.89274 4.99304C6.88297 5.01663 6.87794 5.04191 6.87794 5.06745V6.03967C6.87794 6.09124 6.89842 6.1407 6.93489 6.17716C6.97136 6.21363 7.02081 6.23411 7.07238 6.23411C7.12395 6.23411 7.17341 6.21363 7.20988 6.17716C7.24634 6.1407 7.26683 6.09124 7.26683 6.03967V5.06745C7.26683 5.04191 7.2618 5.01663 7.25203 4.99304C7.24225 4.96945 7.22793 4.94801 7.20988 4.92996C7.19182 4.9119 7.17038 4.89758 7.14679 4.8878C7.1232 4.87803 7.09792 4.873 7.07238 4.873ZM6.25474 6.24384C6.29324 6.24392 6.33089 6.23257 6.36292 6.21122C6.39495 6.18987 6.41991 6.15948 6.43464 6.12392C6.44937 6.08835 6.4532 6.04922 6.44565 6.01147C6.43809 5.97373 6.4195 5.93908 6.39222 5.91192L5.86216 5.38186C5.84411 5.36381 5.82268 5.34949 5.79909 5.33972C5.7755 5.32995 5.75022 5.32492 5.72469 5.32492C5.69916 5.32492 5.67388 5.32995 5.65029 5.33972C5.6267 5.34949 5.60527 5.36381 5.58722 5.38186C5.56916 5.39992 5.55484 5.42135 5.54507 5.44494C5.5353 5.46852 5.53027 5.49381 5.53027 5.51934C5.53027 5.54487 5.5353 5.57015 5.54507 5.59374C5.55484 5.61732 5.56916 5.63876 5.58722 5.65681L6.11727 6.18686C6.1353 6.20495 6.15673 6.21929 6.18032 6.22907C6.20392 6.23884 6.22921 6.24386 6.25474 6.24384ZM7.88302 6.24384C7.90856 6.24386 7.93385 6.23884 7.95744 6.22907C7.98103 6.21929 8.00246 6.20495 8.02049 6.18686L8.55074 5.65681C8.5688 5.63876 8.58312 5.61732 8.59289 5.59374C8.60266 5.57015 8.60769 5.54487 8.60769 5.51934C8.60769 5.49381 8.60266 5.46852 8.59289 5.44494C8.58312 5.42135 8.5688 5.39992 8.55074 5.38186C8.53269 5.36381 8.51126 5.34949 8.48767 5.33972C8.46408 5.32995 8.4388 5.32492 8.41327 5.32492C8.38774 5.32492 8.36246 5.32995 8.33887 5.33972C8.31528 5.34949 8.29385 5.36381 8.2758 5.38186L7.74555 5.91192C7.71827 5.93908 7.69967 5.97373 7.69212 6.01147C7.68457 6.04922 7.6884 6.08835 7.70313 6.12392C7.71786 6.15948 7.74282 6.18987 7.77485 6.21122C7.80688 6.23257 7.84453 6.24392 7.88302 6.24384Z"
        fill="white" />
</svg>